<svg width="44" height="44" viewBox="0 0 44 44" fill="none" xmlns="http://www.w3.org/2000/svg">
<path d="M33.4246 9.87208C30.8054 7.26359 27.3233 5.69165 23.6265 5.44898C19.9297 5.20632 16.2703 6.30947 13.3298 8.553C10.3893 10.7965 8.36799 14.0275 7.64238 17.6443C6.91676 21.2612 7.53626 25.0172 9.38552 28.2131L7.21875 36.0896L15.3155 33.9761C17.5549 35.1902 20.0642 35.8263 22.6142 35.8264H22.6206C25.641 35.8262 28.5935 34.9345 31.1049 33.264C33.6164 31.5936 35.5739 29.2194 36.7302 26.4416C37.8866 23.6638 38.1897 20.6071 37.6013 17.6578C37.0129 14.7086 35.5595 11.9991 33.4246 9.87208ZM22.6206 33.2592H22.6157C20.3423 33.2594 18.1107 32.651 16.1545 31.4979L15.6908 31.2242L10.8855 32.4782L12.1682 27.8156L11.866 27.3377C10.3699 24.9643 9.70845 22.1633 9.98569 19.3749C10.2629 16.5865 11.4631 13.9689 13.3976 11.9336C15.332 9.8983 17.891 8.56067 20.6723 8.13102C23.4536 7.70137 26.2995 8.20405 28.7625 9.56005C31.2256 10.916 33.1661 13.0485 34.2791 15.6221C35.3921 18.1957 35.6145 21.0645 34.9112 23.7777C34.2079 26.4908 32.6189 28.8943 30.394 30.6104C28.169 32.3265 25.4343 33.2578 22.6197 33.258L22.6206 33.2592Z" fill="#E0E0E0"/>
<path d="M7.91992 35.2161L9.98778 27.6982C8.38584 24.931 7.74567 21.715 8.16652 18.5488C8.58737 15.3826 10.0457 12.443 12.3155 10.1859C14.5853 7.92879 17.5396 6.4802 20.7205 6.06473C23.9014 5.64926 27.1312 6.29013 29.909 7.88797C32.6868 9.48581 34.8575 11.9514 36.0845 14.9023C37.3115 17.8533 37.5264 21.1249 36.6956 24.2098C35.8649 27.2947 34.0351 30.0206 31.4899 31.9648C28.9447 33.909 25.8262 34.963 22.618 34.9633H22.6116C20.1787 34.9629 17.7846 34.3559 15.6478 33.198L7.92115 35.2149L7.91992 35.2161Z" fill="url(#paint0_linear_2452_306)"/>
<path fill-rule="evenodd" clip-rule="evenodd" d="M18.8454 14.1596C18.5629 13.5342 18.2652 13.5216 17.9965 13.5109C17.7765 13.5013 17.5248 13.502 17.2737 13.502C17.0825 13.507 16.8944 13.5513 16.7213 13.6322C16.5481 13.7131 16.3937 13.8287 16.2676 13.9719C15.841 14.374 15.5033 14.8602 15.2759 15.3994C15.0485 15.9386 14.9365 16.5191 14.947 17.1038C14.947 18.9517 16.299 20.7373 16.4876 20.988C16.6762 21.2386 19.0975 25.1515 22.9318 26.6568C26.1185 27.9077 26.7671 27.6589 27.4589 27.5963C28.1506 27.5338 29.6907 26.688 30.0053 25.811C30.3199 24.934 30.3196 24.1825 30.2253 24.0254C30.131 23.8684 29.8796 23.7751 29.5021 23.5871C29.1247 23.399 27.2703 22.4904 26.9243 22.3653C26.5783 22.2401 26.3268 22.1775 26.0754 22.5536C25.824 22.9297 25.1014 23.7748 24.8811 24.026C24.6608 24.2773 24.4408 24.3083 24.0636 24.1205C22.9515 23.6791 21.925 23.0484 21.0301 22.2567C20.2053 21.4978 19.498 20.6214 18.9314 19.656C18.7114 19.2806 18.9077 19.0769 19.0972 18.8892C19.2666 18.7211 19.4743 18.4508 19.6632 18.2315C19.818 18.0416 19.9449 17.8308 20.04 17.6054C20.0903 17.5018 20.1138 17.3874 20.1084 17.2725C20.103 17.1576 20.0689 17.0459 20.0092 16.9474C19.914 16.7594 19.1807 14.9023 18.8454 14.1596Z" fill="white"/>
<path d="M33.2997 9.82162C30.7112 7.2413 27.2687 5.6858 23.6136 5.44495C19.9586 5.20409 16.3402 6.29431 13.4326 8.51246C10.5251 10.7306 8.52679 13.9254 7.80996 17.5016C7.09313 21.0778 7.7067 24.7915 9.53635 27.9507L7.39453 35.7383L15.3982 33.649C17.6119 34.8491 20.0924 35.478 22.6131 35.4781H22.6196C25.6055 35.4783 28.5244 34.5972 31.0073 32.946C33.4903 31.2948 35.4256 28.9478 36.5688 26.2017C37.7119 23.4555 38.0115 20.4337 37.4296 17.5181C36.8477 14.6025 35.4105 11.9241 33.2997 9.82162V9.82162ZM22.6196 32.9404H22.6162C20.3688 32.9406 18.1627 32.3392 16.2289 31.1992L15.7704 30.9287L11.0197 32.1683L12.2876 27.5584L11.9891 27.086C10.5102 24.7398 9.85643 21.9708 10.1306 19.2144C10.4047 16.458 11.5912 13.8704 13.5036 11.8585C15.4159 9.84653 17.9456 8.52431 20.6951 8.09965C23.4445 7.675 26.2578 8.172 28.6925 9.51253C31.1273 10.8531 33.0456 12.9611 34.1458 15.5052C35.246 18.0494 35.4657 20.8854 34.7704 23.5674C34.0751 26.2494 32.5043 28.6254 30.3048 30.3217C28.1053 32.0181 25.4019 32.9387 22.6196 32.9388V32.9404Z" fill="white"/>
<defs>
<linearGradient id="paint0_linear_2452_306" x1="22.5563" y1="35.2161" x2="22.5563" y2="5.94141" gradientUnits="userSpaceOnUse">
<stop stop-color="#20B038"/>
<stop offset="1" stop-color="#60D66A"/>
</linearGradient>
</defs>
</svg>
