<svg width="44" height="44" viewBox="0 0 44 44" fill="none" xmlns="http://www.w3.org/2000/svg">
<path d="M17.8234 29.5844C17.3247 29.9117 16.8689 30.3 16.4665 30.7403C14.6991 32.3443 12.948 33.9663 11.1862 35.5765C11.1323 35.6699 11.0529 35.7461 10.9573 35.7961C10.8618 35.8461 10.754 35.8679 10.6465 35.8591L18.8295 7.26758C20.0465 9.55639 21.2016 11.7286 22.3566 13.9008C23.5723 16.2392 24.7659 18.5897 26.0197 20.9076C26.099 21.0033 26.1569 21.1149 26.1895 21.2348C26.2221 21.3547 26.2286 21.4802 26.2087 21.6028C26.1888 21.7255 26.1428 21.8424 26.0739 21.9458C26.005 22.0492 25.9148 22.1367 25.8093 22.2024C23.1583 24.5936 20.544 27.0257 17.9172 29.4438C17.9004 29.4466 17.8844 29.4528 17.8701 29.4619C17.8557 29.471 17.8433 29.4829 17.8337 29.4968C17.824 29.5108 17.8172 29.5266 17.8137 29.5432C17.8103 29.5598 17.8101 29.577 17.8134 29.5937L17.8234 29.5844Z" fill="#FE7A09"/>
<path d="M17.9179 29.4425C20.5447 27.0245 23.159 24.5924 25.81 22.2011C25.9155 22.1355 26.0057 22.048 26.0746 21.9446C26.1435 21.8411 26.1894 21.7242 26.2094 21.6015C26.2293 21.4789 26.2228 21.3534 26.1902 21.2335C26.1576 21.1136 26.0997 21.002 26.0204 20.9064C24.7666 18.5885 23.573 16.238 22.3573 13.8995C22.8594 12.1929 23.3616 10.4862 23.8637 8.77957C23.9126 8.61323 23.9615 8.44687 24.0114 8.27734C24.0855 8.29598 24.152 8.33703 24.2019 8.3949C24.2518 8.45276 24.2826 8.52461 24.2901 8.60064C26.6473 13.0953 29.0036 17.5905 31.3591 22.0861C31.4071 22.1416 31.4428 22.2066 31.4639 22.2769C31.485 22.3472 31.4911 22.4212 31.4816 22.494C31.4721 22.5667 31.4474 22.6367 31.409 22.6992C31.3706 22.7618 31.3194 22.8155 31.2588 22.8569C26.2281 27.4507 21.2046 32.0524 16.1884 36.6621C16.1449 36.7035 16.0933 36.7355 16.0369 36.756C15.9804 36.7764 15.9203 36.7849 15.8604 36.7809C16.028 36.1852 16.1934 35.5889 16.3636 34.994C16.8324 33.3551 17.3062 31.7177 17.7682 30.0769C17.8149 30.0045 17.8442 29.9222 17.8539 29.8366C17.8636 29.7509 17.8534 29.6642 17.8241 29.5831L17.8141 29.5924C17.9502 29.6128 17.9091 29.5104 17.9179 29.4425Z" fill="#028C3C"/>
<path d="M17.9173 29.4453C17.9085 29.5136 17.9499 29.6165 17.8129 29.596C17.8096 29.5792 17.8098 29.562 17.8133 29.5453C17.8168 29.5285 17.8236 29.5127 17.8333 29.4986C17.843 29.4846 17.8555 29.4726 17.8699 29.4635C17.8843 29.4543 17.9004 29.4481 17.9173 29.4453Z" fill="#FEFEFE"/>
</svg>
