<svg width="44" height="44" viewBox="0 0 44 44" fill="none" xmlns="http://www.w3.org/2000/svg">
<path d="M21.1387 36.0879C20.7049 36.0454 20.2687 36.0163 19.8371 35.9593C17.0124 35.5847 14.4963 34.4977 12.3246 32.6493C10.0545 30.7386 8.43499 28.169 7.69057 25.2967C7.27613 23.7469 7.13312 22.1371 7.26787 20.5385C7.49152 17.7485 8.42303 15.2145 10.1194 12.9892C12.4946 9.87259 15.6358 7.9682 19.5128 7.39229C23.7443 6.76272 27.5643 7.83065 30.8642 10.538C33.708 12.8673 35.4234 15.8989 35.9445 19.5355C36.5595 23.824 35.4569 27.6753 32.659 30.9909C30.3029 33.7865 27.2646 35.4002 23.6537 35.9448C23.2008 36.0141 22.7412 36.0409 22.285 36.0879H21.1387ZM18.4795 16.9657C17.3132 16.9657 16.148 16.9657 14.9816 16.9657C14.6707 16.9657 14.56 17.0596 14.5343 17.366C14.5058 17.6639 14.5114 17.9641 14.5511 18.2606C14.582 18.5106 14.7037 18.7404 14.8929 18.9066C15.0822 19.0727 15.3258 19.1636 15.5776 19.162C15.846 19.1676 16.1144 19.162 16.3828 19.162C16.7183 19.162 16.7183 19.162 16.7183 19.4918C16.7183 20.7406 16.7183 21.9893 16.7183 23.238C16.7176 23.7364 16.7826 24.2327 16.9117 24.7141C17.2707 26.056 18.0535 27.0166 19.4122 27.4169C20.5472 27.7524 21.6867 27.6708 22.8072 27.3051C23.07 27.219 23.0745 27.219 23.0756 27.4975C23.0756 28.2713 23.07 29.0451 23.0756 29.819C23.0733 29.9846 23.1043 30.1491 23.1668 30.3026C23.2292 30.456 23.3219 30.5954 23.4392 30.7124C23.5565 30.8294 23.6961 30.9217 23.8498 30.9837C24.0034 31.0458 24.1679 31.0764 24.3336 31.0736C24.7015 31.0736 25.0705 31.0804 25.4384 31.0736C25.5019 31.075 25.565 31.0635 25.6239 31.0398C25.6828 31.0161 25.7363 30.9807 25.7811 30.9358C25.826 30.8909 25.8612 30.8373 25.8848 30.7783C25.9083 30.7194 25.9197 30.6563 25.9182 30.5928C25.9182 30.5011 25.9182 30.4094 25.9182 30.3177C25.9182 26.708 25.9182 23.0993 25.9182 19.4918C25.9182 19.0803 25.9182 19.0803 26.3185 19.0803C26.7859 19.0803 27.2545 19.0803 27.7219 19.0803C28.0686 19.0803 28.1692 18.9741 28.1692 18.6218C28.1692 18.393 28.1692 18.163 28.1692 17.9319C28.1614 17.3057 27.7409 16.8885 27.1091 16.8829C26.5567 16.8785 26.0047 16.8785 25.453 16.8829C25.3805 16.8879 25.3079 16.8751 25.2414 16.8457C25.175 16.8163 25.1167 16.7711 25.0717 16.7141C24.8648 16.4681 24.6501 16.2277 24.4387 15.9861C23.2355 14.5957 22.0296 13.2076 20.8212 11.8217C20.6795 11.6441 20.4989 11.5014 20.2934 11.4044C20.088 11.3075 19.863 11.259 19.6358 11.2626C18.8899 11.2715 18.2279 11.5981 17.5402 11.8295C17.3311 11.8989 17.3087 12.165 17.4552 12.3328C17.5068 12.3896 17.5613 12.4437 17.6185 12.4949C19.1035 13.9047 20.5889 15.3137 22.0747 16.7219C22.1284 16.7722 22.2268 16.8203 22.2022 16.8975C22.1709 16.9981 22.058 16.9568 21.9786 16.9568C20.8122 16.9568 19.647 16.9568 18.4806 16.9568L18.4795 16.9657Z" fill="#672088"/>
<path d="M23.081 22.0168C23.081 22.8678 23.0754 23.7176 23.081 24.5675C23.0914 24.6501 23.0707 24.7336 23.023 24.8018C22.9752 24.87 22.9038 24.918 22.8227 24.9365C22.2766 25.1243 21.6969 25.1944 21.1218 25.1423C20.1433 25.0495 19.5965 24.4713 19.5137 23.4794C19.4377 22.5692 19.4936 21.6578 19.478 20.7464C19.4712 20.2991 19.478 19.8585 19.478 19.4146C19.478 19.2301 19.5383 19.1551 19.7318 19.1563C20.7595 19.163 21.7872 19.1652 22.8137 19.1563C23.0374 19.1563 23.0843 19.2468 23.0832 19.4448C23.0765 20.3025 23.0832 21.1602 23.0832 22.0168" fill="#672088"/>
</svg>
