<svg width="82" height="44" viewBox="0 0 82 44" fill="none" xmlns="http://www.w3.org/2000/svg">
<path d="M62.9615 14.6214C63.2884 14.3573 63.4518 14.2253 63.6153 14.0933C65.887 12.1458 68.7962 12.3603 70.7411 14.6709C70.9372 14.902 71.0352 14.9185 71.2314 14.7204C71.3621 14.5719 71.5092 14.4564 71.6399 14.3078C73.1599 12.8059 75.1702 12.3603 77.0497 13.202C79.0272 14.0933 80.0896 15.6612 80.1059 17.8562C80.1386 22.593 80.1223 27.3132 80.1223 32.0499C80.1223 33.7334 79.0926 34.7897 77.4419 34.7897C76.7882 34.7897 76.1344 34.7402 75.4807 34.8062C74.8106 34.8722 74.6145 34.6576 74.6145 33.9479C74.6472 29.3267 74.6308 24.7055 74.6308 20.0843C74.6308 19.8863 74.6308 19.7047 74.6308 19.5067C74.6145 18.4339 74.1895 17.9883 73.1762 17.9388C72.261 17.8893 71.6236 18.4504 71.5255 19.3911C71.5092 19.6057 71.5255 19.8368 71.5255 20.0513C71.5255 24.0454 71.5255 28.0229 71.5255 32.0169C71.5255 33.7664 70.5286 34.7897 68.7962 34.7732C67.9136 34.7567 66.7205 35.1693 66.2139 34.5916C65.7726 34.0965 66.0668 32.9247 66.0668 32.0499C66.0668 27.9569 66.0668 23.8473 66.0668 19.7542C66.0668 18.3019 65.1352 17.5592 63.9258 18.0543C63.174 18.3679 62.9288 18.9785 62.9288 19.7707C62.9452 23.5997 62.9288 27.4122 62.9288 31.2412C62.9288 31.5383 62.9288 31.8519 62.9288 32.149C62.8798 33.7499 61.8665 34.7567 60.2975 34.7732C59.6438 34.7897 58.99 34.7236 58.3363 34.7897C57.6335 34.8557 57.421 34.6576 57.4374 33.8984C57.4701 27.4122 57.4537 20.926 57.4537 14.4233C57.4537 14.1428 57.4701 13.8787 57.4537 13.5981C57.421 13.235 57.5681 13.1195 57.9277 13.1195C59.4313 13.136 60.9186 13.136 62.4222 13.1195C62.7981 13.1195 62.9779 13.2185 62.9452 13.6311C62.9125 13.9282 62.9452 14.1923 62.9615 14.6214Z" fill="#02B9EF"/>
<path d="M28.313 23.5659C28.313 25.827 28.313 28.0716 28.313 30.3327C28.2967 33.2704 26.7767 34.7888 23.8676 34.8053C22.5928 34.8053 21.3016 34.8218 20.0269 34.8053C17.4446 34.7723 15.5487 33.0394 15.418 30.4317C15.3199 28.5667 15.3036 26.6852 15.4016 24.8202C15.5324 22.1465 17.559 20.265 20.2393 20.232C20.9421 20.2155 21.6612 20.232 22.364 20.232C23.0504 20.2155 23.3119 19.8194 23.2956 19.1592C23.2956 18.4991 23.0014 18.202 22.3476 18.235C21.6122 18.2515 20.8767 18.2515 20.1413 18.235C18.3435 18.202 17.3465 17.2117 17.3628 15.4293C17.3628 14.7031 17.036 13.7293 17.5099 13.3002C17.9185 12.9371 18.8501 13.1682 19.5529 13.1682C21.3834 13.1517 23.1975 13.1682 25.028 13.1682C26.9729 13.1682 28.2967 14.505 28.313 16.4855C28.3294 18.8291 28.313 21.2058 28.313 23.5659ZM23.3119 27.3124C23.3119 27.0318 23.3119 26.7677 23.3119 26.4872C23.3119 24.8037 23.3119 24.8037 21.6449 24.8697C20.8113 24.9027 20.3537 25.3318 20.3374 26.2066C20.321 26.8998 20.321 27.5764 20.3374 28.2696C20.3537 29.4579 20.8767 29.7715 22.5764 29.821C23.8349 29.854 23.1975 28.9628 23.3119 28.4677C23.3773 28.1046 23.2956 27.692 23.3119 27.3124ZM42.8588 21.7669C42.8588 24.2921 42.8915 26.8337 42.8425 29.3589C42.8098 31.3064 42.3522 33.0724 40.489 34.1121C39.7372 34.5248 38.92 34.7558 38.0702 34.7723C36.1906 34.8053 34.3111 34.7723 32.4316 34.8053C31.974 34.8053 31.8759 34.6403 31.8923 34.2277C31.925 33.5345 31.8759 32.8578 31.9086 32.1646C31.9413 30.8443 32.9383 29.8375 34.2458 29.788C35.0956 29.755 35.9291 29.7715 36.779 29.788C37.4654 29.788 37.8413 29.5074 37.8413 28.7647C37.8413 28.0055 37.4818 27.7415 36.7954 27.725C35.6513 27.692 34.5073 27.857 33.3796 27.5269C31.4347 26.9493 30.0128 25.3153 29.9637 23.2853C29.8657 20.067 29.9311 16.8486 29.9147 13.6303C29.9147 13.2672 30.0291 13.1517 30.3887 13.1682C31.7288 13.1847 33.0527 13.2012 34.3929 13.1682C34.9812 13.1517 34.8995 13.4817 34.8995 13.8448C34.8995 16.271 34.8995 18.6806 34.8995 21.1067C34.8995 22.163 35.3898 22.7242 36.305 22.7572C37.3837 22.7902 37.8577 22.3446 37.8577 21.2388C37.8577 18.7961 37.874 16.337 37.8413 13.8944C37.8413 13.3167 37.9884 13.1517 38.5605 13.1682C39.7535 13.2177 40.963 13.2342 42.156 13.1682C42.8098 13.1352 42.9079 13.3827 42.8915 13.9604C42.8425 16.5515 42.8588 19.1592 42.8588 21.7669ZM1.2154 25.5134C1.2154 22.8232 1.2154 20.1165 1.2154 17.4263C1.2154 14.7856 2.81707 13.1352 5.44838 13.1682C7.16446 13.1847 8.88053 12.9701 10.5803 13.3002C12.754 13.7293 14.1268 15.4293 14.1432 17.6903C14.1595 20.0835 14.1432 22.4766 14.1432 24.8697C14.1432 27.8735 12.3944 29.7055 9.41987 29.788C8.52097 29.821 7.62208 29.8045 6.72318 29.788C6.31459 29.7715 6.13481 29.9035 6.15116 30.3492C6.18384 31.0093 6.1675 31.6695 6.15116 32.3297C6.11847 33.7491 5.12151 34.7723 3.73231 34.7888C2.91513 34.8053 1.88548 35.1354 1.36249 34.6568C0.87218 34.2112 1.23174 33.1549 1.2154 32.3627C1.19905 30.0851 1.2154 27.791 1.2154 25.5134ZM6.15116 21.4698C6.15116 21.998 6.15116 22.5096 6.15116 23.0377C6.15116 24.9027 6.15116 24.9027 7.99798 24.7377C8.79881 24.6717 9.17472 24.2756 9.19106 23.4669C9.2074 22.5426 9.15837 21.6019 9.2074 20.6776C9.30547 18.0039 8.81516 18.268 6.65781 18.2515C6.26556 18.2515 6.13481 18.367 6.13481 18.7631C6.1675 19.6544 6.15116 20.5621 6.15116 21.4698Z" fill="#19158E"/>
<path d="M47.4849 25.5472C47.4849 23.3521 47.4686 21.1405 47.5013 18.9455C47.5013 18.4338 47.3869 18.2193 46.8312 18.2358C46.0957 18.2688 45.1151 18.4833 44.7065 18.1202C44.1999 17.6416 44.5921 16.6183 44.5267 15.8261C44.5267 15.7766 44.5267 15.7106 44.5267 15.6611C44.5267 14.8854 44.2816 13.9777 44.6084 13.4C44.9353 12.8224 45.9323 13.1854 46.6351 13.0039C48.0243 12.6408 49.0702 11.8321 49.9201 10.7098C50.5085 9.9506 51.2439 9.40596 52.1919 9.22441C52.6985 9.12539 53.009 9.19141 52.9764 9.85158C52.9273 10.7758 52.9764 11.7166 52.96 12.6573C52.9437 13.0534 53.0908 13.1854 53.483 13.1689C54.1368 13.1524 54.7905 13.1854 55.4442 13.1524C55.8365 13.1359 55.9672 13.2845 55.9509 13.6806C55.9345 15.0339 55.9345 16.3708 55.9509 17.7241C55.9509 18.1037 55.8528 18.3018 55.4442 18.2523C55.3625 18.2358 55.2808 18.2523 55.1991 18.2523C54.48 18.3183 53.483 17.9222 53.1071 18.4173C52.7475 18.8794 52.9764 19.8367 52.9764 20.5794C52.9764 25.0685 52.96 29.5412 52.9927 34.0304C52.9927 34.6576 52.8293 34.8556 52.2082 34.8061C51.6198 34.7566 51.0151 34.8061 50.4104 34.7896C48.6453 34.7236 47.4849 33.5188 47.4849 31.7363C47.4849 29.6733 47.4849 27.6102 47.4849 25.5472Z" fill="#02B9EF"/>
</svg>
