<svg width="44" height="44" viewBox="0 0 44 44" fill="none" xmlns="http://www.w3.org/2000/svg">
<path d="M34.2906 14.2579C31.1545 12.4476 27.1443 13.5233 25.332 16.6594L20.7637 24.5732C19.4418 26.8585 21.1435 27.657 23.0411 28.7947L27.437 31.3319C28.9256 32.1905 30.827 31.6808 31.6856 30.1941L36.382 22.0613C37.9597 19.3284 37.0235 15.8357 34.2906 14.2579Z" fill="#EA4335"/>
<path d="M29.1205 17.5352L24.7246 14.9981C22.2979 13.651 20.9237 13.5619 19.9274 15.1454L13.444 26.3737C11.6337 29.5078 12.7114 33.5161 15.8455 35.3225C18.5784 36.9002 22.0712 35.964 23.6489 33.2311L30.2563 21.7858C31.1188 20.2973 30.6091 18.3939 29.1205 17.5352Z" fill="#FBBC04"/>
<path d="M29.9665 11.7624L26.8789 9.97926C23.4637 8.00807 19.0969 9.17682 17.1257 12.592L11.247 22.7736C10.3787 24.2757 10.8942 26.1984 12.3964 27.0648L15.8542 29.0612C17.5618 30.0478 19.7442 29.4624 20.7308 27.7548L27.4468 16.1235C28.8385 13.7142 31.9183 12.8886 34.3275 14.2802L29.9665 11.7624Z" fill="#34A853"/>
<path d="M17.9615 15.505L14.6239 13.5823C13.1353 12.7256 11.2339 13.2334 10.3753 14.7181L6.37086 21.6376C4.39967 25.0431 5.56843 29.4003 8.9836 31.3657L11.5246 32.829L14.6064 34.6044L15.9438 35.3739C13.5695 33.7846 12.8155 30.6 14.2672 28.092L15.3042 26.301L19.1012 19.7401C19.9579 18.2593 19.4482 16.3617 17.9615 15.505Z" fill="#4285F4"/>
</svg>
