<svg width="44" height="44" viewBox="0 0 44 44" fill="none" xmlns="http://www.w3.org/2000/svg">
<path fill-rule="evenodd" clip-rule="evenodd" d="M30.3999 33.557C28.0287 35.2074 24.5919 36.0879 21.6329 36.0879C17.4839 36.0879 13.7487 34.6388 10.9229 32.2287C10.7008 32.0392 10.8998 31.7809 11.1662 31.9285C14.2158 33.604 17.9865 34.612 21.8816 34.612C24.5085 34.612 27.3982 34.0988 30.0553 33.0337C30.4567 32.8727 30.7924 33.282 30.3999 33.557Z" fill="#E87E04"/>
<path fill-rule="evenodd" clip-rule="evenodd" d="M31.3881 32.4943C31.0861 32.1287 29.3846 32.3216 28.6209 32.4071C28.3882 32.434 28.3527 32.2428 28.5622 32.1052C29.9174 31.2046 32.1411 31.4645 32.4005 31.7664C32.6598 32.07 32.333 34.1749 31.0595 35.1796C30.8641 35.3339 30.6776 35.2517 30.7646 35.0471C31.0506 34.3728 31.6918 32.8616 31.3881 32.4943Z" fill="#E87E04"/>
<path fill-rule="evenodd" clip-rule="evenodd" d="M24.0303 20.2115C24.0303 21.7972 24.0727 23.1196 23.224 24.5278C22.539 25.6727 21.4539 26.3768 20.2414 26.3768C18.5865 26.3768 17.6226 25.1861 17.6226 23.4287C17.6226 19.9596 20.9143 19.3299 24.0303 19.3299V20.2115ZM28.3768 30.1321C28.0919 30.3725 27.6797 30.3897 27.3584 30.2294C25.9277 29.1074 25.6731 28.5865 24.885 27.516C22.5208 29.7944 20.8477 30.4756 17.7802 30.4756C14.155 30.4756 11.3301 28.3632 11.3301 24.1328C11.3301 20.8297 13.2275 18.58 15.9252 17.4809C18.2652 16.5077 21.5327 16.336 24.0303 16.0669V15.5403C24.0303 14.5728 24.1091 13.4279 23.5089 12.5921C22.9815 11.8422 21.9752 11.5331 21.0901 11.5331C19.4473 11.5331 17.9803 12.3288 17.6226 13.9775C17.5498 14.3438 17.2649 14.7045 16.8769 14.7217L12.6941 14.298C12.3425 14.2236 11.9545 13.9546 12.0515 13.4451C13.0154 8.65938 17.5923 7.2168 21.6903 7.2168C23.7878 7.2168 26.5279 7.74345 28.1829 9.24328C30.2804 11.0923 30.0803 13.5596 30.0803 16.2444V22.5872C30.0803 24.4935 30.9169 25.3292 31.705 26.3597C31.9838 26.726 32.0444 27.1668 31.6928 27.4416C30.8138 28.1343 29.2498 29.4223 28.389 30.1436L28.3768 30.1321" fill="#1C1111"/>
</svg>
