<svg width="373" height="457" viewBox="0 0 373 457" fill="none" xmlns="http://www.w3.org/2000/svg">
<path fill-rule="evenodd" clip-rule="evenodd" d="M167.945 149.359C131.256 149.359 94.7237 149.359 57.9545 149.359C57.696 136.616 57.4395 123.977 57.1797 111.132C93.6689 111.132 130.011 111.132 166.5 111.132C166.5 74.0538 166.5 37.1789 166.5 0.43952C166.681 0.264384 166.719 0.226137 166.759 0.191245C166.798 0.15501 166.839 0.0952882 166.884 0.0919331C167.369 0.0550273 167.854 -0.000665007 168.339 6.00734e-06C180.862 0.0147683 193.384 0.0348981 205.906 0.0617387C205.999 0.0617387 206.092 0.157022 206.326 0.285187C206.326 37.0836 206.326 73.9592 206.326 111.067C208.656 111.08 210.853 111.097 213.052 111.103C215.328 111.11 217.605 111.104 219.883 111.104C222.106 111.104 224.329 111.104 226.552 111.104C228.774 111.104 230.998 111.104 233.221 111.104C235.443 111.104 237.666 111.104 239.889 111.104C242.167 111.104 244.444 111.104 246.72 111.104C248.943 111.104 251.166 111.104 253.39 111.104C255.612 111.104 257.836 111.104 260.058 111.104C262.282 111.104 264.504 111.104 266.727 111.104C269.005 111.104 271.281 111.104 273.559 111.104C275.781 111.104 278.004 111.104 280.227 111.104C282.45 111.104 284.673 111.104 286.896 111.104C289.12 111.104 291.343 111.104 293.565 111.104C295.843 111.104 298.119 111.104 300.397 111.104C302.62 111.104 304.842 111.104 307.065 111.104C309.275 111.104 311.486 111.104 313.802 111.104C313.802 123.913 313.802 136.551 313.802 149.353C278.215 149.353 242.731 149.353 207.14 149.353C207.102 150.034 207.049 150.56 207.049 151.083C207.044 165.767 207.053 180.45 207.026 195.133C207.025 196.124 207.3 196.839 207.977 197.58C209.571 199.329 211.041 201.191 212.825 203.324C210.713 203.324 209.021 203.324 207.278 203.324C206.847 204.97 207.132 206.464 207.05 208.063C207.557 208.114 207.969 208.19 208.382 208.193C210.442 208.203 212.505 208.252 214.561 208.166C215.623 208.121 216.22 208.479 216.762 209.392C220.532 215.745 223.668 222.396 226.327 229.28C226.931 230.845 227.501 232.424 228.072 234.003C228.159 234.243 228.159 234.516 228.225 234.938C221.163 234.938 214.191 234.938 207.137 234.938C207.137 236.579 207.137 238.064 207.137 239.718C214.794 239.718 222.358 239.718 229.985 239.718C233.523 250.849 236.034 262.066 237.909 273.644C227.6 273.644 217.436 273.644 207.158 273.644C207.158 275.306 207.158 276.789 207.158 278.455C217.607 278.455 228.043 278.455 238.616 278.455C240.237 289.143 241.07 299.743 241.583 310.74C239.787 309.583 238.321 308.431 236.784 307.39C235.212 306.328 233.647 305.257 232.061 304.217C230.475 303.178 228.875 302.158 227.262 301.16C225.603 300.134 223.93 299.131 222.247 298.145C220.612 297.185 218.964 296.246 217.307 295.324C215.651 294.401 213.983 293.499 212.308 292.609C210.656 291.73 208.989 290.878 207.079 289.883C207.079 321.518 207.079 352.81 207.079 384.056C205.775 384.444 171.553 384.589 168.123 384.244C168.097 383.657 168.045 383.035 168.045 382.412C168.041 364.37 168.041 346.328 168.042 328.287C168.042 308.185 168.036 288.084 168.061 267.983C168.062 266.786 167.78 265.86 166.97 264.92C162.177 259.359 158.877 253.028 157.527 245.771C157.173 243.866 157.027 241.924 156.762 239.808C160.55 239.808 164.155 239.808 167.911 239.808C168.148 238.169 168.004 236.678 168.032 235.019C166.149 234.783 164.324 234.938 162.509 234.91C160.732 234.881 158.954 234.903 157.071 234.903C157.055 232.789 157.467 230.897 157.866 229.012C159.349 221.999 162.232 215.548 165.744 209.339C166.267 208.412 166.985 208.262 167.947 208.237C167.945 188.648 167.945 169.121 167.945 149.359ZM202.604 380.473C202.604 379.915 202.627 379.492 202.601 379.072C202.348 375.021 202.103 370.967 201.827 366.917C201.342 359.789 200.827 352.662 200.342 345.533C200.06 341.374 199.83 337.212 199.549 333.053C199.071 325.978 198.562 318.905 198.084 311.831C197.798 307.618 197.563 303.401 197.278 299.189C196.797 292.114 196.285 285.042 195.806 277.969C195.52 273.757 195.287 269.539 195.002 265.326C194.521 258.198 194.009 251.072 193.527 243.944C193.245 239.785 193.011 235.622 192.727 231.464C192.245 224.389 191.727 217.318 191.25 210.244C190.86 204.464 190.526 198.682 190.134 192.902C189.548 184.263 188.918 175.624 188.332 166.984C187.937 161.151 187.588 155.315 187.204 149.481C187.183 149.16 187.029 148.847 186.866 148.282C186.749 148.678 186.7 148.78 186.693 148.884C186.251 155.691 185.814 162.497 185.378 169.303C184.833 177.784 184.291 186.265 183.748 194.747C183.314 201.499 182.88 208.252 182.446 215.004C182.014 221.756 181.578 228.509 181.153 235.263C180.687 242.664 180.245 250.067 179.771 257.468C179.27 265.301 178.737 273.132 178.227 280.965C177.787 287.717 177.357 294.469 176.925 301.221C176.489 308.028 176.05 314.834 175.621 321.642C175.159 328.988 174.711 336.337 174.248 343.685C173.826 350.384 173.397 357.083 172.962 363.781C172.669 368.264 172.347 372.745 172.068 377.229C172.001 378.284 172.057 379.349 172.057 380.472C182.221 380.473 192.287 380.473 202.604 380.473ZM187.141 122.26C192.176 82.6072 197.169 43.2757 202.168 3.89591C191.611 3.89591 181.286 3.89591 170.796 3.89591C176.117 43.1569 181.419 82.2872 186.731 121.415C186.756 121.606 186.904 121.78 187.141 122.26ZM193.443 130.58C193.436 130.669 193.429 130.76 193.421 130.85C193.983 130.957 194.542 131.092 195.108 131.166C198.007 131.546 200.909 131.902 203.808 132.281C211.698 133.311 219.587 134.355 227.479 135.38C234.566 136.301 241.655 137.194 248.744 138.117C259.104 139.469 269.461 140.841 279.821 142.197C288.033 143.272 296.246 144.351 304.463 145.397C306.323 145.634 308.197 145.613 310.064 145.425C310.064 135.189 310.064 125.138 310.064 114.909C271.105 120.144 232.274 125.362 193.443 130.58ZM61.7033 145.451C64.0232 145.451 66.1504 145.659 68.2239 145.414C74.8371 144.633 81.4295 143.689 88.0292 142.8C95.0581 141.853 102.085 140.891 109.114 139.946C115.821 139.042 122.531 138.159 129.238 137.256C136.911 136.223 144.582 135.17 152.254 134.14C159.767 133.131 167.282 132.141 174.794 131.129C175.082 131.091 175.355 130.932 175.635 130.83C138.041 125.724 100.479 120.833 62.914 115.951C62.4358 115.888 61.9457 115.909 61.4609 115.897C61.4099 115.896 61.3501 115.917 61.3078 115.947C61.2662 115.976 61.2427 116.03 61.0909 116.24C61.2924 125.807 61.4958 135.537 61.7033 145.451ZM188.107 132.925C188.107 133.504 188.095 133.71 188.108 133.914C188.359 137.75 188.618 141.585 188.866 145.421C189.121 149.364 189.351 153.31 189.617 157.253C190.119 164.652 190.647 172.05 191.15 179.449C191.418 183.391 191.642 187.338 191.911 191.28C192.392 198.356 192.902 205.428 193.38 212.503C193.667 216.716 193.903 220.935 194.188 225.148C194.668 232.223 195.178 239.295 195.657 246.371C195.941 250.584 196.175 254.8 196.461 259.013C196.947 266.197 197.468 273.377 197.956 280.56C198.234 284.665 198.458 288.775 198.736 292.88C199.221 300.064 199.736 307.244 200.223 314.428C200.502 318.533 200.741 322.64 201.014 326.746C201.428 333.011 201.85 339.277 202.286 345.541C202.496 348.559 202.743 351.574 202.973 354.591C203.051 354.59 203.131 354.589 203.211 354.588C203.211 353.528 203.211 352.469 203.211 351.41C203.211 308.82 203.211 266.231 203.211 223.642C203.211 198.608 203.204 173.575 203.23 148.541C203.232 147.426 202.941 146.635 202.076 145.879C199.875 143.954 197.772 141.915 195.628 139.922C193.213 137.677 190.8 135.432 188.107 132.925ZM185.577 133.702C185.186 134.03 184.974 134.188 184.785 134.369C180.934 138.105 177.121 141.88 173.213 145.555C172.165 146.54 171.811 147.555 171.812 148.955C171.843 190.677 171.837 232.399 171.837 274.12C171.837 296.662 171.836 319.202 171.84 341.742C171.84 342.906 171.884 344.071 171.909 345.236C172.163 345.086 172.238 344.941 172.248 344.791C172.794 336.362 173.333 327.934 173.874 319.504C174.308 312.751 174.745 305.998 175.179 299.246C175.723 290.764 176.265 282.281 176.81 273.799C177.243 267.046 177.683 260.293 178.108 253.54C178.573 246.138 179.02 238.735 179.488 231.333C180.02 222.903 180.559 214.476 181.107 206.048C181.507 199.888 181.937 193.733 182.329 187.574C182.62 182.981 182.846 178.384 183.145 173.792C183.621 166.445 184.137 159.101 184.626 151.755C184.952 146.839 185.271 141.924 185.568 137.006C185.628 135.997 185.577 134.98 185.577 133.702ZM185.647 127.86C180.63 90.9144 175.661 54.3266 170.692 17.7376C170.424 17.9805 170.399 18.1946 170.399 18.4086C170.397 49.7135 170.401 81.0189 170.374 112.324C170.373 113.241 170.713 113.83 171.332 114.418C175.654 118.521 179.953 122.647 184.267 126.758C184.602 127.078 184.992 127.339 185.647 127.86ZM72.6669 114.938C72.6803 115.031 72.6931 115.124 72.7065 115.217C73.5566 115.342 74.4053 115.477 75.2574 115.587C79.7663 116.173 84.2765 116.748 88.7846 117.335C95.0648 118.153 101.343 118.981 107.623 119.798C113.849 120.608 120.078 121.403 126.303 122.213C134.247 123.246 142.19 124.287 150.133 125.324C156.466 126.151 162.799 126.979 169.133 127.804C173.535 128.379 177.935 128.96 182.339 129.512C182.868 129.578 183.464 129.814 184.226 129.216C183.706 128.799 183.259 128.489 182.869 128.12C178.712 124.157 174.534 120.217 170.435 116.196C169.46 115.238 168.47 114.91 167.132 114.912C136.234 114.945 105.338 114.938 74.4416 114.938C73.8514 114.938 73.2591 114.938 72.6669 114.938ZM202.522 19.034C202.396 19.1474 202.269 19.2058 202.26 19.2789C197.708 54.8474 193.163 90.4171 188.622 125.987C188.561 126.467 188.559 126.957 188.536 127.442C188.533 127.491 188.559 127.554 188.592 127.591C188.621 127.625 188.68 127.632 188.833 127.695C189.097 127.441 189.408 127.158 189.7 126.856C193.616 122.806 197.513 118.736 201.459 114.716C202.236 113.924 202.547 113.123 202.546 112.005C202.516 81.5107 202.522 51.0159 202.522 20.5223C202.522 20.0385 202.522 19.5527 202.522 19.034ZM190.649 128.734C192.581 128.82 291.215 115.639 292.876 114.938C292.387 114.938 292.065 114.938 291.744 114.938C262.9 114.938 234.056 114.942 205.214 114.919C204.257 114.918 203.616 115.232 202.97 115.912C199.722 119.329 196.424 122.698 193.149 126.088C192.334 126.932 191.539 127.793 190.649 128.734ZM184.429 131.792C150.942 136.292 117.805 140.747 84.6673 145.2C85.1199 145.491 85.5475 145.528 85.976 145.528C113.726 145.532 141.475 145.528 169.225 145.547C170.106 145.548 170.737 145.285 171.365 144.67C175.388 140.726 179.446 136.819 183.489 132.894C183.748 132.645 183.958 132.348 184.429 131.792ZM191.331 132.661C191.28 132.774 191.23 132.887 191.179 133.001C191.578 133.407 191.962 133.828 192.378 134.216C196.019 137.618 199.692 140.986 203.291 144.433C204.145 145.252 204.999 145.556 206.165 145.553C232.828 145.526 259.492 145.532 286.156 145.532C286.74 145.532 287.325 145.532 287.909 145.532C287.918 145.425 287.924 145.316 287.931 145.208C255.733 141.022 223.533 136.821 191.331 132.661Z" fill="white"/>
<path fill-rule="evenodd" clip-rule="evenodd" d="M84.7659 355.784C82.722 343.894 81.8834 332.012 82.2721 319.924C96.3312 319.924 110.231 319.924 124.279 319.924C124.39 325.919 124.397 331.904 124.638 337.881C124.878 343.815 125.352 349.741 125.73 355.784C112.124 355.783 98.5497 355.784 84.7659 355.784Z" fill="white"/>
<path fill-rule="evenodd" clip-rule="evenodd" d="M323.078 278.506C323.859 278.506 324.382 278.506 324.905 278.506C336.828 278.506 348.752 278.531 360.674 278.473C361.97 278.467 362.561 278.878 363.087 280.04C367.802 290.477 370.909 301.356 372.285 312.727C372.368 313.416 372.382 314.113 372.427 314.784C371.127 315.121 334.153 315.246 331.04 314.93C330.427 308.815 329.636 302.668 328.314 296.604C326.991 290.535 325.225 284.59 323.078 278.506Z" fill="white"/>
<path fill-rule="evenodd" clip-rule="evenodd" d="M331.311 319.906C345.226 319.906 358.958 319.906 372.871 319.906C373.459 332.192 371.969 344.11 368.439 355.806C354.94 355.806 341.574 355.806 327.984 355.806C330.654 343.94 331.713 332.032 331.311 319.906Z" fill="white"/>
<path fill-rule="evenodd" clip-rule="evenodd" d="M243.57 278.578C256.468 278.578 269.186 278.578 281.868 278.578C284.25 283.834 288.53 309.661 287.879 314.986C287.378 315.009 286.852 315.054 286.324 315.054C273.694 315.058 261.065 315.057 248.434 315.057C248.218 315.057 248.001 315.067 247.783 315.051C246.659 314.975 246.499 314.829 246.447 313.682C246.325 310.977 246.3 308.267 246.1 305.569C245.658 299.634 245.165 293.703 244.629 287.777C244.356 284.766 243.943 281.767 243.57 278.578Z" fill="white"/>
<path fill-rule="evenodd" clip-rule="evenodd" d="M82.4844 314.874C83.2095 302.555 85.1501 290.53 88.4698 278.619C99.803 278.619 111.101 278.619 122.536 278.619C122.7 278.965 122.915 279.392 123.105 279.831C123.712 281.217 124.284 282.622 124.917 283.997C126.375 287.165 126.307 287.153 126.026 290.49C125.535 296.309 125.138 302.136 124.734 307.961C124.577 310.224 124.506 312.492 124.397 314.742C123.242 315.122 85.1628 315.258 82.4844 314.874Z" fill="white"/>
<path fill-rule="evenodd" clip-rule="evenodd" d="M46.788 278.495C42.4651 290.385 39.8497 302.444 38.8553 314.941C26.0606 314.941 13.3579 314.941 0.476562 314.941C0.750518 312.784 0.954644 310.746 1.27493 308.727C2.84078 298.835 5.74485 289.346 9.83874 280.206C10.4068 278.938 11.0339 278.451 12.4575 278.459C23.2961 278.523 34.1349 278.494 44.9736 278.494C45.5007 278.495 46.0272 278.495 46.788 278.495Z" fill="white"/>
<path fill-rule="evenodd" clip-rule="evenodd" d="M38.5878 319.938C38.1385 332.045 39.1786 343.961 41.8833 355.816C29.3646 355.816 17.0231 355.816 4.7092 355.816C1.32101 346.703 -0.813572 329.096 0.29501 319.938C12.9789 319.938 25.6789 319.938 38.5878 319.938Z" fill="white"/>
<path fill-rule="evenodd" clip-rule="evenodd" d="M311.148 396.879C318.113 385.416 323.278 373.506 326.723 360.805C340.069 360.805 353.32 360.805 366.716 360.805C366.558 361.33 366.446 361.792 366.282 362.235C361.735 374.591 355.159 385.796 347.023 396.119C346.424 396.88 345.751 396.996 344.907 396.988C339.815 396.94 334.723 396.898 329.631 396.882C324.159 396.865 318.686 396.879 313.212 396.879C312.634 396.879 312.056 396.879 311.148 396.879Z" fill="white"/>
<path fill-rule="evenodd" clip-rule="evenodd" d="M85.8438 360.805C99.3961 360.805 112.818 360.805 126.33 360.805C126.674 363.396 126.953 365.915 127.352 368.414C128.162 373.489 129 378.56 129.912 383.618C130.135 384.857 129.982 385.726 128.955 386.566C125.181 389.652 121.486 392.832 117.724 395.933C117.261 396.313 116.574 396.622 115.989 396.624C109.974 396.637 103.957 396.579 97.9415 396.536C97.7857 396.535 97.6306 396.468 97.4923 396.437C93.7979 390.247 86.4481 367.806 85.8438 360.805Z" fill="white"/>
<path fill-rule="evenodd" clip-rule="evenodd" d="M6.25781 360.771C18.6429 360.771 30.8191 360.771 43.1062 360.771C46.5206 373.318 51.5915 385.15 58.4807 396.517C57.6119 396.517 57.0881 396.517 56.5643 396.517C46.9759 396.517 37.386 396.505 27.7983 396.532C26.8045 396.535 26.1142 396.312 25.4609 395.472C17.629 385.402 11.2864 374.501 6.8205 362.534C6.6204 361.996 6.46933 361.438 6.25781 360.771Z" fill="white"/>
<path fill-rule="evenodd" clip-rule="evenodd" d="M321.114 273.543C316.1 261.437 309.487 250.301 301.195 239.837C301.934 239.791 302.438 239.732 302.942 239.731C312.593 239.725 322.245 239.784 331.894 239.669C333.472 239.65 334.482 240.122 335.528 241.166C344.739 250.38 352.697 260.54 358.998 271.966C359.251 272.426 359.462 272.909 359.771 273.543C346.832 273.543 334.071 273.543 321.114 273.543Z" fill="white"/>
<path fill-rule="evenodd" clip-rule="evenodd" d="M79.8919 355.798C68.7484 355.798 57.8297 355.798 46.8238 355.798C44.0608 343.976 42.8528 332.099 43.3906 319.924C54.782 319.924 66.0121 319.924 77.39 319.924C77.1611 331.934 77.8923 343.831 79.8919 355.798Z" fill="white"/>
<path fill-rule="evenodd" clip-rule="evenodd" d="M83.4729 278.588C80.2773 290.565 78.3825 302.656 77.66 314.961C66.2935 314.961 55.1003 314.961 43.7109 314.961C44.6698 302.371 47.4544 290.326 51.9129 278.588C62.4266 278.588 72.8557 278.588 83.4729 278.588Z" fill="white"/>
<path fill-rule="evenodd" clip-rule="evenodd" d="M326.428 319.938C326.972 332.051 325.82 343.935 323.024 355.776C312.251 355.776 301.555 355.776 290.648 355.776C292.613 343.907 293.4 332.019 293.039 319.938C304.229 319.938 315.246 319.938 326.428 319.938Z" fill="white"/>
<path fill-rule="evenodd" clip-rule="evenodd" d="M287.047 278.568C297.453 278.568 307.622 278.568 317.913 278.568C322.41 290.255 325.136 302.314 326.147 314.755C324.855 315.126 294.712 315.189 292.846 314.821C292.161 302.657 290.261 290.624 287.047 278.568Z" fill="white"/>
<path fill-rule="evenodd" clip-rule="evenodd" d="M235.062 239.779C245.282 239.779 255.24 239.779 265.258 239.779C271.769 250.349 276.782 261.564 280.544 273.541C267.901 273.541 255.425 273.541 242.779 273.541C240.939 262.21 238.49 250.984 235.062 239.779Z" fill="white"/>
<path fill-rule="evenodd" clip-rule="evenodd" d="M68.6356 239.856C60.3397 250.308 53.7466 261.454 48.714 273.572C36.907 273.572 25.1645 273.572 13.1797 273.572C13.5013 272.949 13.7511 272.436 14.0264 271.937C19.6606 261.724 26.6196 252.491 34.6731 244.071C35.8341 242.856 37.036 241.682 38.1983 240.47C38.6723 239.977 39.1726 239.713 39.8977 239.715C49.1666 239.737 58.4362 239.728 67.7057 239.731C67.9111 239.731 68.1159 239.783 68.6356 239.856Z" fill="white"/>
<path fill-rule="evenodd" clip-rule="evenodd" d="M48.125 360.791C59.1423 360.791 69.9085 360.791 80.797 360.791C83.2592 373.06 86.9334 384.906 92.0741 396.459C82.6522 396.459 73.4639 396.459 64.1501 396.459C57.0809 385.444 51.7516 373.62 48.125 360.791Z" fill="white"/>
<path fill-rule="evenodd" clip-rule="evenodd" d="M289.812 360.781C300.415 360.781 310.97 360.781 321.69 360.781C321.515 361.456 321.386 362.026 321.221 362.586C317.754 374.228 312.773 385.182 306.348 395.492C305.729 396.485 305.077 396.886 303.897 396.876C297.23 396.82 290.562 396.846 283.894 396.844C283.468 396.844 283.04 396.844 282.453 396.844C282.78 394.756 283.14 392.812 283.379 390.853C283.633 388.76 283.835 386.656 283.944 384.551C284.019 383.081 284.181 381.66 284.648 380.25C286.624 374.284 288.211 368.213 289.461 362.054C289.546 361.637 289.687 361.23 289.812 360.781Z" fill="white"/>
<path fill-rule="evenodd" clip-rule="evenodd" d="M53.9531 273.553C54.7193 271.87 55.3672 270.391 56.0615 268.934C60.9102 258.763 66.9748 249.371 74.1662 240.695C74.7415 240.001 75.319 239.71 76.2221 239.715C83.5928 239.748 90.964 239.732 98.3347 239.735C98.6523 239.736 98.9699 239.777 99.5813 239.82C93.3404 250.556 88.5193 261.745 84.9236 273.553C74.6697 273.553 64.4527 273.553 53.9531 273.553Z" fill="white"/>
<path fill-rule="evenodd" clip-rule="evenodd" d="M270.906 239.814C271.648 239.776 272.118 239.73 272.587 239.729C279.468 239.722 286.35 239.745 293.232 239.695C294.362 239.688 295.12 240.007 295.85 240.894C303.639 250.356 310.102 260.636 315.114 271.821C315.352 272.349 315.545 272.898 315.81 273.569C305.7 273.569 295.753 273.569 285.616 273.569C282.011 261.872 277.244 250.606 270.906 239.814Z" fill="white"/>
<path fill-rule="evenodd" clip-rule="evenodd" d="M129.109 319.902C135.453 319.902 141.605 319.902 147.879 319.902C153.64 331.498 154.404 343.431 150.348 355.796C143.775 355.796 137.302 355.796 130.695 355.796C129.488 343.837 129.038 331.931 129.109 319.902Z" fill="white"/>
<path fill-rule="evenodd" clip-rule="evenodd" d="M287.055 426.328C295.088 418.736 302.041 410.633 307.968 401.812C319.341 401.812 330.578 401.812 342.104 401.812C341.644 402.396 341.38 402.777 341.07 403.117C333.442 411.539 324.94 418.979 315.729 425.622C315.043 426.116 314.354 426.369 313.487 426.369C305.252 426.367 297.018 426.407 288.784 426.428C288.321 426.429 287.859 426.376 287.055 426.328Z" fill="white"/>
<path fill-rule="evenodd" clip-rule="evenodd" d="M328.178 234.903C327.752 234.903 327.324 234.903 326.899 234.903C317.419 234.902 307.94 234.887 298.461 234.924C297.445 234.928 296.78 234.621 296.104 233.862C287.594 224.304 277.949 216.061 267.244 209.05C266.974 208.873 266.7 208.695 266.443 208.499C266.367 208.443 266.342 208.323 266.227 208.109C266.505 208.061 266.743 207.985 266.979 207.984C273.588 207.953 280.196 207.918 286.804 207.927C287.426 207.928 288.101 208.095 288.662 208.37C302.579 215.2 315.541 223.494 327.312 233.611C327.671 233.918 328.062 234.188 328.44 234.475C328.352 234.618 328.266 234.76 328.178 234.903Z" fill="white"/>
<path fill-rule="evenodd" clip-rule="evenodd" d="M120.822 273.589C110.39 273.589 100.276 273.589 90 273.589C90.2316 272.821 90.4157 272.157 90.6298 271.505C94.1026 260.931 98.6404 250.84 104.325 241.262C104.966 240.182 105.638 239.646 106.982 239.69C110.39 239.802 113.804 239.73 117.217 239.739C117.641 239.739 118.066 239.783 118.698 239.819C116.236 251.265 117.284 262.439 120.822 273.589Z" fill="white"/>
<path fill-rule="evenodd" clip-rule="evenodd" d="M285.676 355.816C283.538 355.816 281.492 355.816 279.244 355.816C273.601 341.763 264.217 330.303 252.789 319.93C264.785 319.93 276.389 319.93 288.002 319.93C289.134 323.078 287.781 346.599 285.676 355.816Z" fill="white"/>
<path fill-rule="evenodd" clip-rule="evenodd" d="M30.4766 401.409C31.1903 401.364 31.6033 401.316 32.0169 401.316C41.4435 401.323 50.8709 401.341 60.2975 401.336C61.1005 401.336 61.6794 401.467 62.1923 402.226C66.4085 408.478 71.1121 414.346 76.2957 419.826C76.4407 419.98 76.5496 420.169 76.7389 420.427C76.3374 420.666 75.9956 420.913 75.6203 421.087C71.7439 422.893 67.8991 424.775 63.9677 426.451C61.817 427.369 59.6744 427.359 57.568 425.836C48.0991 418.985 39.3418 411.353 31.5315 402.652C31.2447 402.332 30.9742 401.996 30.4766 401.409Z" fill="white"/>
<path fill-rule="evenodd" clip-rule="evenodd" d="M44.4844 234.768C45.0343 234.246 45.3969 233.872 45.791 233.533C57.0676 223.861 69.4339 215.836 82.7066 209.186C83.2256 208.925 83.8173 208.657 84.3766 208.653C90.4398 208.615 96.5032 208.63 102.965 208.63C102.381 209.1 102.062 209.4 101.703 209.639C94.0073 214.74 86.8617 220.521 80.282 226.99C77.9675 229.265 75.7738 231.664 73.5693 234.049C73.0537 234.606 72.5655 234.915 71.7786 234.913C62.8965 234.889 54.0138 234.894 45.1317 234.889C45.0249 234.889 44.9188 234.849 44.4844 234.768Z" fill="white"/>
<path fill-rule="evenodd" clip-rule="evenodd" d="M221.617 208.159C223.68 208.159 225.355 208.171 227.031 208.157C230.008 208.132 232.985 208.109 235.962 208.05C236.758 208.034 237.411 208.221 238.051 208.728C247.118 215.917 254.801 224.383 261.389 233.869C261.562 234.118 261.685 234.403 261.912 234.814C252.382 234.814 243.037 234.814 233.473 234.814C230.354 225.764 226.653 216.862 221.617 208.159Z" fill="white"/>
<path fill-rule="evenodd" clip-rule="evenodd" d="M79.5547 234.44C81.5295 232.515 83.4787 230.563 85.4844 228.669C93.278 221.313 101.802 214.927 111.033 209.477C112.097 208.848 113.145 208.519 114.392 208.54C117.804 208.598 121.216 208.56 124.849 208.56C124.536 208.946 124.359 209.234 124.119 209.451C116.116 216.687 109.214 224.863 103.313 233.886C102.908 234.504 102.519 234.93 101.662 234.926C94.5605 234.889 87.4598 234.905 80.3584 234.899C80.1604 234.899 79.9616 234.845 79.7628 234.817C79.693 234.692 79.6238 234.567 79.5547 234.44Z" fill="white"/>
<path fill-rule="evenodd" clip-rule="evenodd" d="M290.404 234.905C287.693 234.905 285.367 234.905 283.041 234.905C278.491 234.905 273.94 234.87 269.392 234.93C268.291 234.945 267.643 234.603 267.035 233.675C261.622 225.395 255.346 217.827 248.117 211.059C247.175 210.176 246.219 209.309 244.977 208.166C245.794 208.088 246.291 208 246.789 207.998C249.604 207.985 252.423 207.947 255.237 208.021C255.949 208.04 256.717 208.322 257.348 208.681C267.604 214.53 277.001 221.533 285.469 229.766C286.827 231.087 288.147 232.446 289.478 233.796C289.728 234.052 289.94 234.347 290.404 234.905Z" fill="white"/>
<path fill-rule="evenodd" clip-rule="evenodd" d="M247.719 456.423C249.771 454.153 251.811 451.873 253.889 449.629C254.167 449.329 254.64 449.209 255.024 449.009C263.981 444.318 272.369 438.768 280.154 432.319C281.081 431.55 281.995 431.19 283.215 431.199C290.475 431.247 297.738 431.217 305 431.213C305.574 431.213 306.148 431.213 306.763 431.409C288.53 443.124 268.822 451.288 247.958 456.751C247.878 456.641 247.798 456.532 247.719 456.423Z" fill="white"/>
<path fill-rule="evenodd" clip-rule="evenodd" d="M302.026 401.775C301.654 402.351 301.415 402.761 301.139 403.14C295.129 411.402 288.268 418.889 280.592 425.629C280.174 425.996 279.588 426.377 279.071 426.392C276.314 426.467 273.553 426.427 270.508 426.427C271.621 424.333 272.676 422.429 273.652 420.486C274.672 418.458 275.665 416.413 276.576 414.332C277.464 412.302 278.278 410.238 279.041 408.158C279.804 406.082 280.463 403.969 281.199 401.775C288.038 401.775 294.895 401.775 302.026 401.775Z" fill="white"/>
<path fill-rule="evenodd" clip-rule="evenodd" d="M94.3763 401.45C95.6796 403.925 96.9601 406.355 98.2292 408.762C96.709 410.121 84.3239 416.978 81.3407 418.116C76.357 413.022 71.777 407.535 67.5078 401.449C76.6524 401.45 85.4997 401.45 94.3763 401.45Z" fill="white"/>
<path fill-rule="evenodd" clip-rule="evenodd" d="M212.766 186.996C234.63 189.23 255.751 194.419 276.074 203.014C275.789 203.048 275.506 203.11 275.222 203.112C269.808 203.152 264.394 203.171 258.98 203.234C257.97 203.245 257.094 203.007 256.203 202.529C243.139 195.532 229.333 190.595 214.797 187.684C214.127 187.55 213.255 187.778 212.797 186.973L212.766 186.996Z" fill="white"/>
<path fill-rule="evenodd" clip-rule="evenodd" d="M131.219 360.771C137.006 360.771 142.513 360.771 148.023 360.771C147.691 364.072 138.666 377.383 134.288 380.924C132.943 374.238 131.998 367.609 131.219 360.771Z" fill="white"/>
<path fill-rule="evenodd" clip-rule="evenodd" d="M120.042 234.852C116.192 234.852 112.517 234.852 108.648 234.852C108.889 234.387 109.036 234.004 109.263 233.678C115.579 224.61 122.919 216.49 131.483 209.475C132.783 208.41 134.051 208.424 135.758 208.645C128.701 216.42 123.236 224.903 120.042 234.852Z" fill="white"/>
<path fill-rule="evenodd" clip-rule="evenodd" d="M95.2812 203.381C113.929 195.561 133.315 190.473 153.374 187.889C149.607 188.887 145.82 189.821 142.074 190.894C131.94 193.802 122.255 197.822 113.003 202.868C111.864 203.49 110.744 203.759 109.462 203.748C105.291 203.712 101.118 203.75 96.9464 203.76C96.41 203.761 95.8735 203.76 95.337 203.76C95.3182 203.633 95.3 203.507 95.2812 203.381Z" fill="white"/>
<path fill-rule="evenodd" clip-rule="evenodd" d="M130.402 294.854C130.545 295.053 144.741 314.813 144.827 314.933C139.64 314.933 134.539 314.933 129.312 314.933C129.345 308.223 129.834 301.631 130.402 294.854Z" fill="white"/>
<path fill-rule="evenodd" clip-rule="evenodd" d="M218.703 203.291C216.394 200.306 214.1 197.338 211.789 194.346C214.308 194.505 226.424 200.348 229.782 203.011C228.879 203.388 222.263 203.552 218.703 203.291Z" fill="white"/>
<path fill-rule="evenodd" clip-rule="evenodd" d="M122.711 203.691C129.041 200.353 135.631 197.844 142.543 196.068C142.227 196.292 141.917 196.527 141.593 196.74C138.425 198.821 135.261 200.907 132.079 202.965C131.599 203.276 131.037 203.644 130.503 203.658C127.907 203.729 125.308 203.691 122.711 203.691Z" fill="white"/>
<path fill-rule="evenodd" clip-rule="evenodd" d="M246.042 203.284C243.885 203.284 241.729 203.302 239.573 203.268C239.167 203.261 238.711 203.127 238.373 202.908C235.153 200.823 231.953 198.708 228.751 196.595C228.667 196.541 228.617 196.433 228.367 196.117C234.621 198.003 240.457 200.265 246.15 202.901C246.113 203.029 246.077 203.157 246.042 203.284Z" fill="white"/>
<path fill-rule="evenodd" clip-rule="evenodd" d="M273.304 431.624C269.807 434.323 266.192 436.851 262.258 438.971C263.882 436.569 265.497 434.162 267.141 431.775C267.301 431.543 267.646 431.307 267.911 431.3C269.669 431.258 271.429 431.278 273.189 431.278C273.227 431.394 273.266 431.509 273.304 431.624Z" fill="white"/>
<path fill-rule="evenodd" clip-rule="evenodd" d="M102.426 406.319C101.582 404.745 100.775 403.248 99.8516 401.527C103.247 401.527 106.341 401.527 109.439 401.527C108.814 402.442 105.422 404.778 102.426 406.319Z" fill="white"/>
<path fill-rule="evenodd" clip-rule="evenodd" d="M282.881 368.02C282.289 365.674 281.698 363.329 281.07 360.84C282.274 360.84 283.418 360.84 284.797 360.84C284.257 363.275 283.727 365.667 283.194 368.06C283.09 368.046 282.986 368.033 282.881 368.02Z" fill="white"/>
<path fill-rule="evenodd" clip-rule="evenodd" d="M142 202.542C141.437 202.944 140.873 203.344 140.31 203.745C140.239 203.644 140.166 203.541 140.094 203.439C140.542 202.886 141.203 202.613 141.812 202.271C141.875 202.361 141.938 202.451 142 202.542Z" fill="white"/>
<path fill-rule="evenodd" clip-rule="evenodd" d="M212.796 186.97C212.335 186.998 211.875 187.027 211.414 187.056C211.415 186.993 211.416 186.93 211.416 186.867C211.861 186.913 212.308 186.958 212.758 186.999C212.764 186.994 212.796 186.97 212.796 186.97Z" fill="white"/>
</svg>
